{"title":"Republican.Debates.9pm.08.06.2015.WS.SDTV.x264-XAiO","uid":12272905,"size":754948591,"categoryP":"video","categoryS":"tv_shows","magnet":"?xt=urn:btih:ad4daf5bebcd88731204f97c3d90db875f384346&amp;dn=Republican.Debates.9pm.08.06.2015.WS.SDTV.x264-XAiO&amp;tr=udp%3A%2F%2Ftracker.openbittorrent.com%3A80&amp;tr=udp%3A%2F%2Fopen.demonii.com%3A1337&amp;tr=udp%3A%2F%2Ftracker.coppersurfer.tk%3A6969&amp;tr=udp%3A%2F%2Fexodus.desync.com%3A6969","seeders":0,"leechers":0,"uploader":"Reive","files":1,"time":1440311062,"description":"NOTES: I realize this has already been released by some other people. I honestly don't know if my copy is better but I had already ripped it so I figure may as well post it, too.\n\n_,-'2_,-'2_,-'2_,-'2_,-'2_,-'2_,-'2_,-'2_,-'2_,-'2\n\n\nOn the floor:\nRAND PAUL\nDONALD TRUMP\nJEB BUSH\nSCOTT WALKER\nMIKE HUCKABEE\nBEN CARSON\nTED CRUZ\nMARCO RUBIO\nCHRIS CHRISTIE\nJOHN KASICH\n\n_,-'2_,-'2_,-'2_,-'2_,-'2_,-'2_,-'2_,-'2_,-'2_,-'2\n\nGeneral\nComplete name                            : Republican.Debates.9pm.08.06.2015.WS.SDTV.x264-XAiO.mp4\nFormat                                   : MPEG-4\nFormat profile                           : Base Media\nCodec ID                                 : isom\nFile size                                : 720 MiB\nDuration                                 : 2h 0mn\nOverall bit rate                         : 833 Kbps\nWriting application                      : Lavf56.25.101\n\nVideo\nID                                       : 1\nFormat                                   : AVC\nFormat/Info                              : Advanced Video Codec\nFormat profile                           : High@L3\nFormat settings, CABAC                   : Yes\nFormat settings, ReFrames                : 4 frames\nCodec ID                                 : avc1\nCodec ID/Info                            : Advanced Video Coding\nDuration                                 : 2h 0mn\nBit rate                                 : 694 Kbps\nWidth                                    : 624 pixels\nHeight                                   : 352 pixels\nDisplay aspect ratio                     : 16:9\nFrame rate mode                          : Variable\nFrame rate                               : 29.970 fps\nMinimum frame rate                       : 9.990 fps\nMaximum frame rate                       : 29.970 fps\nColor space                              : YUV\nChroma subsampling                       : 4:2:0\nBit depth                                : 8 bits\nScan type                                : Progressive\nBits/(Pixel*Frame)                       : 0.105\nStream size                              : 600 MiB (83%)\nWriting library                          : x264 core 142 r2389 956c8d8\nEncoding settings                        : cabac=1 / ref=3 / deblock=1:0:0 / analyse=0x3:0x133 / me=hex / subme=7 / psy=1 / psy_rd=1.00:0.00 / mixed_ref=1 / me_range=16 / chroma_me=1 / trellis=1 / 8x8dct=1 / cqm=0 / deadzone=21,11 / fast_pskip=1 / chroma_qp_offset=-2 / threads=6 / lookahead_threads=1 / sliced_threads=0 / nr=0 / decimate=1 / interlaced=0 / bluray_compat=0 / constrained_intra=0 / bframes=3 / b_pyramid=2 / b_adapt=1 / b_bias=0 / direct=1 / weightb=1 / open_gop=0 / weightp=2 / keyint=250 / keyint_min=25 / scenecut=40 / intra_refresh=0 / rc_lookahead=40 / rc=2pass / mbtree=1 / bitrate=694 / ratetol=1.0 / qcomp=0.60 / qpmin=10 / qpmax=51 / qpstep=4 / cplxblur=20.0 / qblur=0.5 / ip_ratio=1.40 / aq=1:1.00\n\nAudio\nID                                       : 2\nFormat                                   : AAC\nFormat/Info                              : Advanced Audio Codec\nFormat profile                           : LC\nCodec ID                                 : 40\nDuration                                 : 2h 0mn\nBit rate mode                            : Constant\nBit rate                                 : 128 Kbps\nChannel(s)                               : 2 channels\nChannel positions                        : Front: L R\nSampling rate                            : 48.0 KHz\nCompression mode                         : Lossy\nStream size                              : 111 MiB (15%)\nLanguage                                 : unk","torrent":{"xt":"urn:btih:ad4daf5bebcd88731204f97c3d90db875f384346","amp;dn":"Republican.Debates.9pm.08.06.2015.WS.SDTV.x264-XAiO","amp;tr":["udp%3A%2F%2Ftracker.openbittorrent.com%3A80","udp%3A%2F%2Fopen.demonii.com%3A1337","udp%3A%2F%2Ftracker.coppersurfer.tk%3A6969","udp%3A%2F%2Fexodus.desync.com%3A6969"],"infoHash":"ad4daf5bebcd88731204f97c3d90db875f384346","infoHashBuffer":{"type":"Buffer","data":[173,77,175,91,235,205,136,115,18,4,249,124,61,144,219,135,95,56,67,70]},"announce":[],"urlList":[]}}